<svg width="21" height="15" version="1.1" xmlns="http://www.w3.org/2000/svg"><defs><linearGradient id="b" x1="50%" x2="50%" y2="100%"><stop stop-color="#157CBB" offset="0"/><stop stop-color="#0E6CA5" offset="1"/></linearGradient></defs><g fill="none" fill-rule="evenodd"><path d="m0 0h21v15h-21z" fill="url(#b)" style="fill:#666"/></g><g transform="matrix(.87171 0 0 .87171 1.347 .96217)" aria-label="ﻊ"><path d="m15.422 11.359q0 0.97916-1.9583 1.75-1.625 0.63542-2.7917 0.63542-1.9896 0-3.4375-1-1.6562-1.1562-1.6562-3.4062 0-1.3958 1.2396-2.8646 1.2187-1.2187 2.9479-2.1146-0.28125-0.47917-0.89583-0.8125-0.60417-0.33333-1.1771-0.375l0.625-1.5208q1.3021-0.39583 2.2187-0.39583 2.5417 0 2.5417 1.5521 0 1.2292-2.0625 1.9583 0.53125 0.96875 1.125 1.3854 0.66667 0.46875 1.6979 0.46875h1.5833v1.2812h-1.8437q-1.2812 0-2.1146-0.77083-0.6875-0.63542-1.2187-1.9687-1.5 0.83333-2.5729 1.75-1.1771 1.2187-1.1771 2.4583 0 1.3542 1.5521 2.2083 1.3021 0.70833 2.8021 0.70833 2.3958 0 4.5729-0.92708zm-6.8229-8.8125q1.2083 0.34375 1.9375 1.3854 1.3646-0.48958 1.3646-1.0208 0-0.78125-1.4167-0.78125-0.73958 0-1.8854 0.41667z" style="fill:#fff"/></g></svg>
