<svg width="21" height="15" version="1.1" xmlns="http://www.w3.org/2000/svg"><g fill="none" fill-rule="evenodd"><path d="m0 0h21v15h-21z" fill="#666"/></g><g transform="matrix(.86592 0 0 .86592 1.4079 1.0055)" aria-label="ﻑ"><path d="m15.906 10.057q-0.78124 0.55207-1.5833 0.55207-0.72916 0-1.25-0.25-0.51041-0.25-0.51041-0.70832 0-1.3021 0.63541-2.7916t1.5416-1.4896q0.90624 0 1.4479 1.3958 0.55208 1.3958 0.55208 2.8854 0 1.4896-0.33333 2.427-0.33333 0.93749-1.1562 1.3229-0.81249 0.38541-3.3958 0.38541h-2.8125q-3.0104 0-3.8958-0.58332-0.8854-0.58332-0.8854-1.6562 0-0.8854 0.45833-1.9896 0.46874-1.1146 0.89582-1.1146 0.125 0 0.125 0.1875 0 0.16666-0.32291 0.84374-0.32291 0.66666-0.32291 1.0521 0 0.96874 0.89582 1.4791 0.89582 0.49999 3.7083 0.49999h1.7812q3.2812 0 3.8854-0.48958 0.61457-0.49999 0.61457-1.3021 0-0.23958-0.07292-0.65624zm-0.34374-1.2083q-0.43749-2.177-1.1354-2.177-0.49999 0-0.84374 0.69791-0.33333 0.68749-0.33333 1.3541 0 0.57291 0.9479 0.57291 0.46874 0 1.3646-0.44791zm-0.32291-6.4999-1.1354 1.1458-1.1562-1.1458 1.1562-1.1354z" style="fill:#fff"/></g></svg>
